<?xml version="1.0" encoding="UTF-8"?>
<svg id="Layer_1" xmlns="http://www.w3.org/2000/svg" version="1.1" viewBox="0 0 696.3 428.3">
  <!-- Generator: Adobe Illustrator 30.3.0, SVG Export Plug-In . SVG Version: 2.1.3 Build 182)  -->
  <defs>
    <style>
      .st0 {
        fill: #0d1b2a;
      }

      .st1 {
        fill: none;
        stroke: #5fa8d3;
        stroke-miterlimit: 10;
        stroke-width: 3px;
      }
    </style>
  </defs>
  <g>
    <path class="st0" d="M140.5,156.6c0,28.4-14.2,54.8-31.9,72.5-18.5,18.3-39.8,25.1-56.3,25.1s-30.2-7.4-39.8-20.5C3.8,222.2,0,209.3,0,191s9.6-48.4,24.6-66.2c17.2-21,40.1-33.2,62.6-33.2s53.2,28.4,53.2,64.9ZM44.9,125.9c-12.9,17.5-25.1,52.7-25.1,81.6s13.4,41.1,29.2,41.1,27.9-5.3,43.1-24.3c15-18.8,28.9-57.3,28.9-82.2s-5.3-45.6-30.2-45.6-31.9,10.1-45.9,29.4Z"/>
    <path class="st0" d="M240.1,171.3c-6.1,16-13.9,37.5-23.1,59.3-1.3,3.6-1.3,5.3,1.3,5.3,6.1,0,17-11.4,19-13.7,3-3.8,3.8-1,1.3,3.3-8.1,13.9-26.9,28.4-36.3,28.4s-4.3-2.3-4.3-5.6.5-5.6,2-9.6c2-5.6,7.6-18.8,12.7-31.9.8-2.5.3-2.8-1.8-.8-10.1,12.4-27.6,30.9-41.8,41.1-7.6,5.6-11.9,6.8-15.5,6.8s-3.8-1-4.8-3.3c-1.8-3.8-1-9.9,1.5-17.5,5.6-16.5,16.5-41.6,23.1-57.3,1-2.5.8-4.1-.5-4.1-3.3,0-10.7,5.8-16.5,11.2-4.6,4.3-3.5-.3-1.5-2.5,6.1-9.6,23.3-24.3,33.5-24.3s6.8,3.5,3.8,12.9c-3,8.9-21.3,51-27.1,66.4-1,3-1,6.3,1.5,6.3,4.1,0,13.4-7.1,27.1-22.8,15.2-17.7,29.7-44.4,37-56.8,2-2.8,6.1-5.8,9.9-5.8s3.5,4.3-.5,15Z"/>
    <path class="st0" d="M296.4,164.9c-1,0-2,2.3-2.5,3.6-3.3,9.1-14.5,41.1-21.6,63.4-.5,2-.3,4.1,1.5,4.1,2.5,0,10.4-4.1,19.5-13.9,4.3-4.6,3,.8,1.3,3.3-10.1,15.2-28.4,28.7-36.5,28.7s-5.8-2.8-5.8-6.3,2-8.9,3-12.4c3-8.9,14.7-44.1,22.6-66.7.3-1.3.3-2.8-.8-2.8-3.8-.3-7.4,0-10.1-.3-1.8-.3-2.3-1-2.3-1.5,0-1,2.5-2.5,3.6-2.5,1.3-.3,5.1-1,11.4-1.3.5,0,1.5-1.3,1.8-1.8,2.3-5.3,6.6-14.5,9.1-18.3,1.8-2.5,7.4-5.8,11.7-5.8s1.8,3,1,4.8c-1.8,7.1-4.1,14.5-5.6,18.8-.3.8,0,1.8.5,1.8,4.6,0,11.4-.5,18.5-.5s2,.5,2,1.3-1.5,3-5.6,3.5c-5.3.5-14.7,1-16.7,1Z"/>
    <path class="st0" d="M379.5,160.9c1.5,1.5,2.5,3.5,2.5,6.6s-5.6,7.4-7.4,7.4-3.8-1.5-6.1-4.6c-3.3-5.8-5.3-8.9-8.9-8.9-5.3,0-10.7,6.6-16.5,16.7-7.9,13.4-14.7,35.8-14.7,52s4.1,13.2,8.6,13.2,15.2-5.6,23.8-15.5c1.8-2,2.5-2.8,3.3-2.8s-.5,4.3-2,6.6c-5.6,11.7-19,22.3-32.2,22.3s-18.5-6.8-18.5-26.4,1.5-17.7,7.9-32.2c5.8-13.2,16-27.1,31.2-34.7,6.1-3,11.4-4.3,16.7-4.3s9.4,1.8,12.2,4.6Z"/>
    <path class="st0" d="M457.6,185.5c0,26.1-17.5,50.5-29.2,59.1-10.1,7.6-18.3,9.4-25.4,9.4s-20-7.9-20-27.9,6.3-34.5,18-48.9c11.9-14.7,24.8-21,36-21s20.5,17.2,20.5,29.4ZM416.1,179.6c-10.6,16.2-18.8,39.8-18.8,57.1s2.8,13.4,7.4,13.4,9.1-3.3,15-10.9c11.7-15,24.1-47.7,24.1-64.7s-.5-15.2-6.1-15.2-12.7,6.3-21.6,20.3Z"/>
    <path class="st0" d="M512.1,170c-.8,2.8-3.5,9.1-8.6,20.3-1,2.5,0,3.3,2,1,7.6-10.4,19.3-23.1,29.9-29.7,5.8-3.8,10.4-5.6,15.5-5.6s9.4,6.8,9.4,11.7-2,9.6-8.1,23.8c-.8,1.3.8,1.5,1.3.8,11.9-14.7,20.8-23.3,31.7-30.4,7.1-4.6,12.7-6.1,16.7-6.1,6.3,0,8.9,6.8,8.9,10.4s-1,7.9-3,13.2c-6.1,16-18.5,43.1-21.8,51.2-.5,1.8,0,3.3,1.3,3.3,3.8,0,11.9-5.8,21.3-15,1.8-1.8,2.5.5.3,3.5-12.9,18.3-34,31.2-41.3,31.2s-4.8-5.6-4.1-7.4c6.3-16.7,28.1-64.4,31.2-71.8,2.8-5.8.8-10.4-2.8-10.4-5.8,0-16.5,6.8-33,30.7-9.4,13.2-22.6,39.6-30.4,53.5-2,2.8-5.8,5.8-10.9,5.8s-3.6-5.1-2.8-6.6c6.8-18,23.3-56.3,30.2-73,2-5.1,1-10.1-2.3-10.1-8.4,0-16.2,6.1-33.2,30.4-9.6,14.7-22.8,40.8-30.7,54.3-1.8,3-5.6,5.1-10.4,5.1s-3-1.8-3-3.8,1.5-6.3,3.6-10.7c7.1-16.7,22.8-50.5,26.9-60.6,2.8-6.8.8-10.4-2.3-10.4-4.6,0-10.4,4.6-15.2,11.2-.5,1-1.5,2.3-2.3,2.3s-1-1-.3-3.6c2-7.1,13.4-22.3,26.6-22.3s10.9,9.1,9.9,13.7Z"/>
    <path class="st0" d="M693.2,168.7c-.3,5.6-3.8,12.9-12.4,19.3-9.4,7.4-24.6,12.4-35.5,13.2-1,0-2,1.8-2.3,2.3-2.3,6.6-4.6,17.5-4.6,25.4s1.3,12.4,10.7,12.4,15-5.3,21.8-13.4c1-1.3,1.8-2,2.3-.8.5.3,0,3-1.8,6.3-6.6,11.7-18,20.5-31.4,20.5s-17.7-9.4-17.7-24.6,9.4-37.5,16.7-48.2c10.7-14.7,26.6-25.1,39.1-25.1s15.2,6.6,15.2,12.7ZM645.5,196.9c-.3.5.3,1,1,.8,15-2.8,35.2-20.5,35.2-31.2s-1.8-7.1-5.1-7.1c-10.4,0-23.6,15.7-31.2,37.5Z"/>
  </g>
  <line class="st1" x1=".6" y1="304.9" x2="696.3" y2="307"/>
  <g>
    <path class="st0" d="M72.4,31.8c0,7.4-4.7,17.3-7.1,20.5-1.3,1.5-2.4,2.4-4.1,3.5-1,.8-5.3,2.7-6.5,2.7s-2.2-.8-2.2-1.7.5-1.6,1.2-2.4c0-.2.4-.4.6-.3,1.6,1,3.3,1.7,4.1,1.7s1.9-1.1,2.7-2.5c3.1-5.1,6.3-16.3,6.3-21.1s-.8-3.6-2.4-3.6c-3.5,0-7.5,4.9-11.7,11.2-3.7,5.7-7.3,14.5-8.5,17.1-.4.8-.8,1.2-1.1,1.2-.9,0-1.9-.8-2.3-1.2-.3-.5-.2-1.3,0-1.8,3.5-12.3,12.1-42.3,13.2-46.6,0-.3,0-1-.3-1.1-.8-.2-4.6-.3-7.3-.3h-9.5c-.4,0-.7.3-1.2,1.7-.6,1.2-10.2,33-12.3,40.4-1.5,5.9-.8,6.2,3.8,7,2.2.4,1.3,1.3-.3,1.3-2.5,0-5.2-.4-8.7-.4s-6.5.4-8.5.4-1.7-1,0-1.4c4.1-.6,5.7-1,7.7-6.8,1.6-4.4,12.6-39.6,12.8-41.1.3-1,.2-1.3-.3-1.3-4.8,0-10-.2-12.4.2-4.1.4-5.2,2.5-7.8,6.8-.8,1.2-1.8,1.2-1.1-.5,1.5-3.5,2.5-5.7,3.4-9,0-.4.5-.6.7-.4.3.6,1.9,1.1,4.2,1.2,1.4,0,5.7.2,12.5.2s22.7,0,24.4-.3c.6,0,.9-.3,1.4-.8.3-.4,1.3-3.3,1.6-3.7.3-.3.5-.6.8-.6.6,0,2.5.5,3,1.1.3.3.3.6.3.8-.5,2-1.8,6.6-3,10.6-2.3,7.7-5.5,18.8-8.3,27.7,0,.4.3.7.8,0,3.4-4.8,7-9.2,11.1-12.2,3.2-2.4,5-2.5,6.4-2.5,3.1,0,4.1,4.1,4.1,6.2Z"/>
    <path class="st0" d="M99,29.8c0,1.8-1.4,4.3-4.2,6.5-3.2,2.5-8,4.1-11.7,4.4-.3,0-.7.5-.8.8-.8,2.1-1.7,6.2-1.7,8.7s.3,4.1,3.5,4.1,5.1-1.9,7.3-4.6c.3-.4.6-.6.7-.2,0,.2,0,1-.7,2.3-2,3.5-5.6,6.4-10,6.4s-5.6-3.2-5.6-8.1,3.1-12.6,5.6-16.1c3.6-4.8,8.7-8.4,12.8-8.4s4.8,2.1,4.8,4.1ZM83.1,39.2c0,.3,0,.3.4.3,5-.8,11.9-6.8,11.9-10.3s-.6-2.4-1.7-2.4c-3.6,0-8,5.2-10.7,12.4Z"/>
  </g>
  <g>
    <path class="st0" d="M467.2,364.3c-5.2,6.9-7.2,16.7-7.2,23.7,0,12.6,7.5,15.8,12.8,15.8s6.7-1.2,9.3-3.5c2.6-2.1,5.3-4.8,6.7-6.8,1.7-2.3,2.3-2.7,2.2-1.3-.3,1.7-3,7.9-4.3,9.3-.3.3-.7.8-1,.7-1.2-.4-2.3-.3-4.9,1-4.4,2-7.5,2.5-10.8,2.5-5.5,0-16.4-4.5-16.4-20.6s5.1-20,12.7-26.5c5.4-4.5,12.8-7.4,19.1-7.4s8.4,1.4,10,2.3c1.2.4,2.1.4,4.2-.2.5-.2.8,0,.2.9-1.9,2.6-2.5,4.5-3.8,8.5-.4.9-1.5,1.7-1.3-.3.3-2.5.3-4.1-.8-6.3-1.3-2.3-4.2-3.7-8.3-3.7-6.1,0-12.7,3.9-18.3,11.7Z"/>
    <path class="st0" d="M520.1,382.7c0,8.7-6,17.1-9.7,19.8-3.2,2.5-5.7,3-8.1,3s-6.3-2.7-6.3-9.3,2.1-11.7,6-16.4c3.9-4.9,8.1-6.9,11.6-6.9,5.2,0,6.5,5.9,6.5,9.8ZM506,381.3c-3.3,5.2-5.8,12.4-5.8,18.2s.9,4.8,2.6,4.8,3.2-1.2,5.3-3.9c3.9-5.1,7.9-15.2,7.9-21s0-5.4-2.2-5.4-4.6,2.3-7.8,7.3Z"/>
    <path class="st0" d="M538.1,377.5c-.3,1-1.1,2.7-3,7-.3.8,0,1,.7.2,2.4-3,6.3-7.5,10-9.9,1.9-1.3,3.5-1.9,5.1-1.9,2.3,0,3,2.3,3,3.8s-.7,3.3-3,8.3c-.2.4.3.6.4.3,3.9-4.7,7.1-7.9,10.8-10.4,2.3-1.4,4.1-2,5.6-2s2.8,2.1,2.8,3.4-.3,2.8-1,4.5c-2,5.2-6.3,14.4-7.4,17.2-.2.5,0,1.1.4,1.1,1.1,0,3.9-1.9,7.1-5.1.6-.6.8,0,0,1.2-3.9,5.6-11,10.2-13.2,10.2s-1.4-1.9-1.3-2.5c2.5-5.9,9.5-21.6,10.6-24,.8-1.9.2-3.4-1.2-3.4-2,0-5.7,2.5-11.3,10.4-3.5,4.9-7.4,13-10.2,17.8-.7.9-1.9,1.8-3.2,1.8s-.9-1.7-.7-2.3c2.5-6.3,8.1-19.4,10.1-24.5.7-1.8.2-3.1-.9-3.1-3,0-5.7,2.2-11.6,10.6-3.2,4.8-7.5,13.2-10.2,17.8-.5.8-1.6,1.5-3,1.5s-.9-.6-.9-1.2c0-.4.7-2.2,1.4-3.6,2.4-5.5,7.9-17,9.2-20.5.9-2.3.2-3.5-.8-3.5-1.5,0-3.6,1.4-5.2,3.8-.3.4-.5.8-.8.8s-.3-.3,0-1c.5-2.4,4.4-7.4,8.5-7.4s3.5,3.1,3.2,4.5Z"/>
    <path class="st0" d="M598.5,375c1.8,1.4,2.5,4.4,2.5,6,0,8.7-7.4,19.2-15.6,23.2-1.2.7-3,1.3-3.9,1.3s-1.1-.2-2-.8c-.3,0-.4,0-.5.2-.8,1.6-3.6,13.4-4.6,17.7-.8,3.4,0,3.6,2.9,4.3,1.9.4,1.2,1.1,0,1.1s-4-.2-6.3-.2-4.5.3-6.3.3-2.2-.8,0-1.1c3-.6,3.6-1.4,4.8-4.2,2-6,9.4-34.1,12.7-46.6,0-.3,0-.6-.2-.5-1.9.3-4.5.9-5.3,1.3-.9.4-.3-.6.2-1,1-.7,3.2-1.3,5.7-1.9,0,0,.3-.4.4-.6.3-1.1,1.4-4.7,1.8-6.2.3-.6,1.1-.9,1.3-.9,1.4,0,2.8,1.2,2.7,1.9,0,.7-.8,3.3-1,4.5,0,.3,0,.6.3.5.9,0,3.1-.3,4.2-.3,3,0,5.2.8,6.4,1.9ZM587.5,375.2c-.4,0-.5.3-.7.6-.9,3-5.4,19.4-6.9,25.5-.3,1.4.5,3,1.4,3s1.7-.4,3.6-1.9c3.5-2.8,11.1-13.6,11.1-21.8s-.9-5.7-5.7-5.7-2,0-2.7.3Z"/>
    <path class="st0" d="M628.2,375.5c0,0,.3,0,.4-.2,1.1-1.9,1.7-2.5,2-2.5.6,0,1.4.4,2.1.9.3.2.3.8.2,1.4-.7,2.2-5.8,15.6-8.9,24.6-.2.4,0,.8.5.8,2.1,0,5-2.5,7.1-5.4.5-.5.8-.4.7.3,0,.3-.3.8-.5,1.4-2.2,3.9-7.4,9-11.7,9s-1.9-.5-1.9-1.3c0-1.1,2.5-6.8,4.7-13,.2-.4,0-.6-.3-.3-9.1,10.4-15.1,14.6-17.9,14.6s-2.6-1.4-2.6-3.5,1.6-6.1,4.1-9.9c2.8-4.3,7.1-9,11.7-12.5,3.3-2.6,7.4-5,8.5-5s1.3.4,1.8.8ZM614.5,384.6c-3.3,3.6-6.9,11-6.9,14.7s.3,1.8,1.3,1.8c1.5,0,3.7-1.6,6.2-3.8,5.3-5,9.5-11.4,11.7-17.7,0-.2,0-.4,0-.6-.3-.2-1.4-.7-2.4-.7-3.3,0-7.2,3.3-9.8,6.3Z"/>
    <path class="st0" d="M650.2,376.5c-.3.9-.8,3.3-3.5,9.1-.3.8,0,.9.6.3,3.7-4.8,10.7-12.9,17.2-12.9s2.8,1.6,2.8,3.1-.4,2.6-1.4,5.1c-2,5.4-6,14.4-7.2,17.2-.3.9-.2,1.1.4,1.1,1,0,4.6-2.6,7-5.3.8-.8.9.2,0,1.4-3.4,5.1-10,9.9-13.1,9.9s-1.4-1.7-1.1-2.5c.3-1,9.2-20.5,10.6-24.5.5-1.6.2-3-1.2-3-2,0-5.3,1.9-10.5,8.6-4.1,5.8-7.6,13-11.5,19.8-.3.6-1.5,1-2.9,1s-1-.4-.9-1c0-.6.5-2,1-3.1,2.5-6,7.9-18.4,9.4-21.8.6-1.3.3-1.9-.8-1.9s-3.3,1-5,3.6c-.4.6-.9.3-.7-.6.7-1.9,3.1-6.9,8.2-6.9s3,2.5,2.6,3.6Z"/>
    <path class="st0" d="M683.2,377.7c1.1,3.4,1.3,7.9,1.3,12.5s-.4,7.1-.9,10.7c-.2,1.3.3.9.8.2,4.5-8.7,8.5-22.5,8.6-27.6,0-.3.4-.7.6-.7,1.4,0,2.1,1.9,2,3.2,0,5.2-7.2,20.5-10.1,26-1.8,3.4-3,5.3-3.6,6.3-3.3,5.5-8.7,12.4-12.5,15.5-4.6,3.6-7.4,4.4-9.6,4.4s-3.9-1.4-3.9-3.6,1.8-3.5,2.7-3.5.9.3,1.2,1.4c.6,1.4,1.6,2.6,3.4,2.6,2.7,0,5.2-1.5,8.3-5.2,2.5-3,5.1-6.7,7.6-15,1.5-7.5,2.1-18,0-24.5-.8-2.3-1.7-3.4-2.6-3.4-2.2,0-3.6,3.5-4.2,5.4-.4,1.8-.9,1.2-.9-.2,0-4.5,3.6-9.4,7.1-9.4s3.9,2,4.8,4.7Z"/>
  </g>
</svg>